HIERARCHY
ROOT hips
{
  OFFSET 0 10.6860622 2.3727825e-15
  CHANNELS 6 Xposition Yposition Zposition Yrotation Xrotation Zrotation
  JOINT leftUpperLeg
  {
    OFFSET 0.6642549969 -0.9402397400000004 0
    CHANNELS 3 Yrotation Xrotation Zrotation
    JOINT leftLowerLeg
    {
      OFFSET 0 -3.997221335632195 0
      CHANNELS 3 Yrotation Xrotation Zrotation
      JOINT leftFoot
      {
        OFFSET -0.13777839790000004 -4.6145792000000005 -0.22186036399999998
        CHANNELS 3 Yrotation Xrotation Zrotation
        JOINT leftToes
        {
          OFFSET -0.03777410834999995 -0.9130806927000008 0.85230013
          CHANNELS 3 Yrotation Xrotation Zrotation
          End Site
          {
            OFFSET -0.03777410834999995 -0.9130806927000008 0.85230013
          }
        }
      }
    }
  }
  JOINT rightUpperLeg
  {
    OFFSET -0.6642778626 -0.9402397400000004 0
    CHANNELS 3 Yrotation Xrotation Zrotation
    JOINT rightLowerLeg
    {
      OFFSET 0 -3.997221452859387 0
      CHANNELS 3 Yrotation Xrotation Zrotation
      JOINT rightFoot
      {
        OFFSET 0.1377926176 -4.6145792000000005 -0.22185782299999995
        CHANNELS 3 Yrotation Xrotation Zrotation
        JOINT rightToes
        {
          OFFSET 0.037780746850000047 -0.9130806927000008 0.85230167
          CHANNELS 3 Yrotation Xrotation Zrotation
          End Site
          {
            OFFSET 0.037780746850000047 -0.9130806927000008 0.85230167
          }
        }
      }
    }
  }
  JOINT spine
  {
    OFFSET 0 0.13988381660000015 0
    CHANNELS 3 Yrotation Xrotation Zrotation
    JOINT chest
    {
      OFFSET 0 0.6191039003973773 0
      CHANNELS 3 Yrotation Xrotation Zrotation
      JOINT upperChest
      {
        OFFSET 0 0.9855186130586943 0
        CHANNELS 3 Yrotation Xrotation Zrotation
        JOINT leftShoulder
        {
          OFFSET 0.1807663869 1.5087829790000005 0
          CHANNELS 3 Yrotation Xrotation Zrotation
          JOINT leftUpperArm
          {
            OFFSET 0.5985063006419806 0 0
            CHANNELS 3 Yrotation Xrotation Zrotation
            JOINT leftLowerArm
            {
              OFFSET 2.2993332369501065 0 0
              CHANNELS 3 Yrotation Xrotation Zrotation
              JOINT leftHand
              {
                OFFSET 2.395047042602395 0 0
                CHANNELS 3 Yrotation Xrotation Zrotation
                JOINT leftIndexProximal
                {
                  OFFSET 0.5766295810000004 0.04556643899499946 0.17265095988184
                  CHANNELS 3 Yrotation Xrotation Zrotation
                  JOINT leftIndexIntermediate
                  {
                    OFFSET 0.2957229000000008 -0.019352197700001517 -0.007932640616999987
                    CHANNELS 3 Yrotation Xrotation Zrotation
                    JOINT leftIndexDistal
                    {
                      OFFSET 0.19008243099999922 -0.012484908149998475 -0.002786250786000012
                      CHANNELS 3 Yrotation Xrotation Zrotation
                      End Site
                      {
                        OFFSET 0.19008243099999922 -0.012484908149998475 -0.002786250786000012
                      }
                    }
                  }
                }
                JOINT leftMiddleProximal
                {
                  OFFSET 0.5834975091000001 0.0524350405149987 0.02204081888183999
                  CHANNELS 3 Yrotation Xrotation Zrotation
                  JOINT leftMiddleIntermediate
                  {
                    OFFSET 0.33880573540000003 -0.019871473270000717 -0.00000971183179999946
                    CHANNELS 3 Yrotation Xrotation Zrotation
                    JOINT leftMiddleDistal
                    {
                      OFFSET 0.20676022730000088 -0.012221336379999448 0.0001471936708000235
                      CHANNELS 3 Yrotation Xrotation Zrotation
                      End Site
                      {
                        OFFSET 0.20676022730000088 -0.012221336379999448 0.0001471936708000235
                      }
                    }
                  }
                }
                JOINT leftLittleProximal
                {
                  OFFSET 0.5344154683999995 -0.012880921405001189 -0.24414037221816004
                  CHANNELS 3 Yrotation Xrotation Zrotation
                  JOINT leftLittleIntermediate
                  {
                    OFFSET 0.21758961730000093 -0.011650919939999227 0.011893592810000034
                    CHANNELS 3 Yrotation Xrotation Zrotation
                    JOINT leftLittleDistal
                    {
                      OFFSET 0.1475273964999999 -0.008152365682999818 0.006001092492999946
                      CHANNELS 3 Yrotation Xrotation Zrotation
                      End Site
                      {
                        OFFSET 0.1475273964999999 -0.008152365682999818 0.006001092492999946
                      }
                    }
                  }
                }
                JOINT leftRingProximal
                {
                  OFFSET 0.5799399463000003 0.026911854694997794 -0.12150566991816003
                  CHANNELS 3 Yrotation Xrotation Zrotation
                  JOINT leftRingIntermediate
                  {
                    OFFSET 0.26167887460000006 -0.013480186499999602 0.010996293000000053
                    CHANNELS 3 Yrotation Xrotation Zrotation
                    JOINT leftRingDistal
                    {
                      OFFSET 0.17667108799999987 -0.008990287899999228 0.0055541023999999065
                      CHANNELS 3 Yrotation Xrotation Zrotation
                      End Site
                      {
                        OFFSET 0.17667108799999987 -0.008990287899999228 0.0055541023999999065
                      }
                    }
                  }
                }
                JOINT leftThumbProximal
                {
                  OFFSET 0.11018806699999972 -0.09448718900500053 0.17047963138184
                  CHANNELS 3 Yrotation Xrotation Zrotation
                  JOINT leftThumbIntermediate
                  {
                    OFFSET 0.31062601459999983 -0.08126270900000132 0.15443142000000007
                    CHANNELS 3 Yrotation Xrotation Zrotation
                    JOINT leftThumbDistal
                    {
                      OFFSET 0.21627175790000086 -0.08833193599999878 0.018771167799999988
                      CHANNELS 3 Yrotation Xrotation Zrotation
                      End Site
                      {
                        OFFSET 0.21627175790000086 -0.08833193599999878 0.018771167799999988
                      }
                    }
                  }
                }
              }
            }
          }
        }
        JOINT neck
        {
          OFFSET 0 1.5463305265074576 0
          CHANNELS 3 Yrotation Xrotation Zrotation
          JOINT head
          {
            OFFSET 0 0.8456443600000344 0
            CHANNELS 3 Yrotation Xrotation Zrotation
            JOINT leftEye
            {
              OFFSET 0.30408573140000006 0.5104519199999995 0.1276382305
              CHANNELS 3 Yrotation Xrotation Zrotation
              End Site
              {
                OFFSET 0.30408573140000006 0.5104519199999995 0.1276382305
              }
            }
            JOINT rightEye
            {
              OFFSET -0.30409491089999996 0.5104519199999995 0.1276379445
              CHANNELS 3 Yrotation Xrotation Zrotation
              End Site
              {
                OFFSET -0.30409491089999996 0.5104519199999995 0.1276379445
              }
            }
            JOINT jaw
            {
              OFFSET -3.155239131000001e-7 -0.11984121820000082 0.60178107
              CHANNELS 3 Yrotation Xrotation Zrotation
              End Site
              {
                OFFSET -3.155239131000001e-7 -0.11984121820000082 0.60178107
              }
            }
          }
        }
        JOINT rightShoulder
        {
          OFFSET -0.1807303465 1.5087829790000005 0
          CHANNELS 3 Yrotation Xrotation Zrotation
          JOINT rightUpperArm
          {
            OFFSET -0.5985063796536958 0 0
            CHANNELS 3 Yrotation Xrotation Zrotation
            JOINT rightLowerArm
            {
              OFFSET -2.2993322059002854 0 0
              CHANNELS 3 Yrotation Xrotation Zrotation
              JOINT rightHand
              {
                OFFSET -2.395045314457259 0 0
                CHANNELS 3 Yrotation Xrotation Zrotation
                JOINT rightIndexProximal
                {
                  OFFSET -0.5764487688300002 0.0441371204405987 0.17361932004999997
                  CHANNELS 3 Yrotation Xrotation Zrotation
                  JOINT rightIndexIntermediate
                  {
                    OFFSET -0.29573011380000047 -0.01934826376999843 -0.007698921482999974
                    CHANNELS 3 Yrotation Xrotation Zrotation
                    JOINT rightIndexDistal
                    {
                      OFFSET -0.19008373999999884 -0.012503266380000655 -0.0026365778999999897
                      CHANNELS 3 Yrotation Xrotation Zrotation
                      End Site
                      {
                        OFFSET -0.19008373999999884 -0.012503266380000655 -0.0026365778999999897
                      }
                    }
                  }
                }
                JOINT rightMiddleProximal
                {
                  OFFSET -0.5834852037300005 0.05211639405060153 0.02307162440000001
                  CHANNELS 3 Yrotation Xrotation Zrotation
                  JOINT rightMiddleIntermediate
                  {
                    OFFSET -0.33880114510000003 -0.019952774050000954 0.0002455003561999819
                    CHANNELS 3 Yrotation Xrotation Zrotation
                    JOINT rightMiddleDistal
                    {
                      OFFSET -0.20675694929999955 -0.012273788999999091 0.00030209124000002766
                      CHANNELS 3 Yrotation Xrotation Zrotation
                      End Site
                      {
                        OFFSET -0.20675694929999955 -0.012273788999999091 0.00030209124000002766
                      }
                    }
                  }
                }
                JOINT rightLittleProximal
                {
                  OFFSET -0.5346811737299992 -0.011214256288399227 -0.24363941305000003
                  CHANNELS 3 Yrotation Xrotation Zrotation
                  JOINT rightLittleIntermediate
                  {
                    OFFSET -0.21757715980000092 -0.011771559690000988 0.01201554387
                    CHANNELS 3 Yrotation Xrotation Zrotation
                    JOINT rightLittleDistal
                    {
                      OFFSET -0.1475201849000004 -0.00822055339600003 0.006082065407000015
                      CHANNELS 3 Yrotation Xrotation Zrotation
                      End Site
                      {
                        OFFSET -0.1475201849000004 -0.00822055339600003 0.006082065407000015
                      }
                    }
                  }
                }
                JOINT rightRingProximal
                {
                  OFFSET -0.5800810755299999 0.027657985680600072 -0.12066365025000003
                  CHANNELS 3 Yrotation Xrotation Zrotation
                  JOINT rightRingIntermediate
                  {
                    OFFSET -0.26166445029999974 -0.013623118409999302 0.011164098990000045
                    CHANNELS 3 Yrotation Xrotation Zrotation
                    JOINT rightRingDistal
                    {
                      OFFSET -0.17666387530000027 -0.009072900100000503 0.005668185599999959
                      CHANNELS 3 Yrotation Xrotation Zrotation
                      End Site
                      {
                        OFFSET -0.17666387530000027 -0.009072900100000503 0.005668185599999959
                      }
                    }
                  }
                }
                JOINT rightThumbProximal
                {
                  OFFSET -0.10997596379000074 -0.09577489355940072 0.16989765924999997
                  CHANNELS 3 Yrotation Xrotation Zrotation
                  JOINT rightThumbIntermediate
                  {
                    OFFSET -0.31036620999999986 -0.08229339117999834 0.15440884469999996
                    CHANNELS 3 Yrotation Xrotation Zrotation
                    JOINT rightThumbDistal
                    {
                      OFFSET -0.21631306399999906 -0.08825326400000111 0.018656797720000014
                      CHANNELS 3 Yrotation Xrotation Zrotation
                      End Site
                      {
                        OFFSET -0.21631306399999906 -0.08825326400000111 0.018656797720000014
                      }
                    }
                  }
                }
              }
            }
          }
        }
      }
    }
  }
}
MOTION
Frames: 9
Frame Time: 0.03333333333333333
0 11.682712981546562 0 0 0 0 0 0 -5.826343164929014 -0.3712483961610101 -3.6333298826370974 5.838118207697276 0 0 0 0 0 0 0 0 5.826343164929014 0.3712483961610101 -3.6333298826370974 -5.838118207697276 0 0 0 0 0 0 0 -4.610651315171937 0 0 3.0831277533083026 0 0 0 0 0 1.5275236235667615 0 0 0 0 0 0 0 0 0 0 0 0 0 0 0 0 0 0 0 0 0 0 0 0 0 0 0 0 0 0 0 0 0 0 0 0 0 0 0 0 0 0 0 0 0 0 0 0 0 0 0 0 0 0 0 0 1.5275236235667615 0 0 0 0 0 0 0 0 0 0 0 0 0 0 1.5275236235667615 0 0 0 0 0 0 0 0 0 0 0 0 0 0 0 0 0 0 0 0 0 0 0 0 0 0 0 0 0 0 0 0 0 0 0 0 0 0 0 0 0 0 0 0 0 0 0 0 0 0 0 0 0 0 0
0.18300031787506407 -7.748201181975664 4.75082286686426 180 0 0 10.929917271722907 -60.36886581521669 6.5058494408244085 177.66453754067442 37.30329170293534 -170.56889171205304 31.93797469700498 54.2208424550157 29.344486734343956 0 0 0 -10.932501513515593 -60.3696947082829 -6.508453379891471 -177.6589112158233 37.304584011629814 170.57435222952245 -31.94544167265881 54.21877474412964 -29.351933875690698 0 0 0 -5.745609457467193e-33 -4.955113141012952 1.3278968962838704e-31 -0.4496475289052711 2.64060387394708 -0.034429869114397965 0 0 0 0.18580482044884314 1.5039361697701663 -8.144985288663422 -26.63821989981234 -39.08253936639632 -51.9480012693248 -33.00315655559262 -0.0016785887122289297 -4.999766856871851 21.520050239176584 -0.19469024787529102 -32.130953264894 0 0 0 0 0 0 0 0 0 0 0 0 0 0 0 0 0 0 0 0 0 0 0 0 0 0 0 0 0 0 0 0 0 0 0 0 0 0 0 0 0 0 0 0 0 -0.0001970878125531734 1.7146162080382075 -0.1206538936760368 0 -0.1801000052771316 0 0 0 0 0 0 0 0 0 0 -0.18929387190822325 1.5041781912611158 8.14138268279171 26.63586790309598 -39.07979410527349 51.94432559971513 46.99964908015457 -0.0010191093308155978 4.998585053863945 -21.523460221546998 -0.1943879035400427 32.127383921545544 0 0 0 0 0 0 0 0 0 0 0 0 0 0 0 0 0 0 0 0 0 0 0 0 0 0 0 0 0 0 0 0 0 0 0 0 0 0 0 0 0 0 0 0 0
0.18300031787506407 -7.748201181975664 4.75082286686426 180 0 0 10.929917271722907 -60.36886581521669 6.5058494408244085 177.66453646822907 37.30329170293534 -170.56889171205304 31.937977175461622 54.2208424550157 29.34448928017163 0 0 0 -10.932501513515593 -60.3696947082829 -6.508453379891471 -177.6589112158233 37.304584011629814 170.57435222952245 -31.94544167265881 54.21877474412964 -29.351933875690698 0 0 0 -5.745609457467193e-33 -4.955113141012952 1.3278968962838704e-31 -0.4496475289052711 2.64060387394708 -0.034429869114397965 0 0 0 0.18580482044884314 1.5039361697701663 -8.144985288663422 -26.63821989981234 -39.08253936639632 -51.9480012693248 -32.88103606705826 -0.0016775924692738493 -4.9997701313409975 21.520050239176584 -0.19469024787529102 -32.130953264894 0 0 0 0 0 0 0 0 0 0 0 0 0 0 0 0 0 0 0 0 0 0 0 0 0 0 0 0 0 0 0 0 0 0 0 0 0 0 0 0 0 0 0 0 0 -0.0001970878125531734 1.7146162080382075 -0.1206538936760368 -0.05373901372847603 -0.3619421888524869 -0.08319156344949753 0 0 0 0 0 0 0 0 0 -0.18929387190822325 1.5041781912611158 8.14138268279171 26.63586790309598 -39.07979410527349 51.94432559971513 46.99964908015457 -0.0010191093308155978 4.998585053863945 -21.523460221546998 -0.1943879035400427 32.127383921545544 0 0 0 0 0 0 0 0 0 0 0 0 0 0 0 0 0 0 0 0 0 0 0 0 0 0 0 0 0 0 0 0 0 0 0 0 0 0 0 0 0 0 0 0 0
0.18300031787506407 -7.748201181975664 4.75082286686426 180 0 0 10.929917271722907 -60.36886581521669 6.5058494408244085 177.66453754067442 37.30329170293534 -170.56889171205304 31.937977175461622 54.2208424550157 29.34448928017163 0 0 0 -10.932501513515593 -60.3696947082829 -6.508453379891471 -177.6589125563977 37.304584011629814 170.57434905293076 -31.94544167265881 54.21877474412964 -29.351933875690698 0 0 0 -5.745609457467193e-33 -4.955113141012952 1.3278968962838704e-31 -0.4496475289052711 2.64060387394708 -0.034429869114397965 0 0 0 0.18580482044884314 1.5039361697701663 -8.144985288663422 -26.638217933534918 -39.08254376593898 -51.9480012693248 -32.75889017202583 -0.0016775924692738493 -4.999772257653749 21.520050239176584 -0.19469108831357604 -32.130953264894 0 0 0 0 0 0 0 0 0 0 0 0 0 0 0 0 0 0 0 0 0 0 0 0 0 0 0 0 0 0 0 0 0 0 0 0 0 0 0 0 0 0 0 0 0 -0.0001970878125531734 1.7146162080382075 -0.1206538936760368 -0.10723337268321373 -0.5439200923446917 -0.16624232620712834 0 0 0 0 0 0 0 0 0 -0.18929387190822325 1.5041781912611158 8.14138268279171 26.635869875416798 -39.07980290401671 51.94432364005167 46.99964908015457 -0.0010191093308155978 4.998585053863945 -21.523463062976326 -0.1943882237070027 32.127383921545544 0 0 0 0 0 0 0 0 0 0 0 0 0 0 0 0 0 0 0 0 0 0 0 0 0 0 0 0 0 0 0 0 0 0 0 0 0 0 0 0 0 0 0 0 0
0.18300031787506407 -7.748201181975664 4.75082286686426 180 0 0 10.929917271722907 -60.36886581521669 6.5058494408244085 177.66453646822907 37.30329170293534 -170.56889171205304 31.9379818104129 54.22084829615356 29.344497551009614 0 0 0 -10.932505559614503 -60.3696947082829 -6.508449948385226 -177.6589112158233 37.304584011629814 170.57435222952245 -31.945448786477666 54.21877474412964 -29.351944692765198 0 0 0 -5.745609457467193e-33 -4.955113141012952 1.3278968962838704e-31 -0.4496475289052711 2.64060387394708 -0.034429869114397965 0 0 0 0.18580482044884314 1.5039361697701663 -8.144985288663422 -26.63821989981234 -39.08253936639632 -51.9480012693248 -32.63669452669942 -0.0016756000875841057 -4.999773108178846 21.520050239176584 -0.19469024787529102 -32.130953264894 0 0 0 0 0 0 0 0 0 0 0 0 0 0 0 0 0 0 0 0 0 0 0 0 0 0 0 0 0 0 0 0 0 0 0 0 0 0 0 0 0 0 0 0 0 -0.0001970878125531734 1.7146162080382075 -0.1206538936760368 -0.1604813472394418 -0.726031666149499 -0.24915047714329233 0 0 0 0 0 0 0 0 0 -0.18929387190822325 1.5041781912611158 8.14138268279171 26.63586790309598 -39.07979410527349 51.94432559971513 46.99965157778245 -0.0010191093308155978 4.998585053863945 -21.523460221546998 -0.1943879035400427 32.127383921545544 0 0 0 0 0 0 0 0 0 0 0 0 0 0 0 0 0 0 0 0 0 0 0 0 0 0 0 0 0 0 0 0 0 0 0 0 0 0 0 0 0 0 0 0 0
0.18300031787506407 -7.748201181975664 4.75082286686426 180 0 0 10.929916809789011 -60.36885890786305 6.505846942471125 177.66453754067442 37.30329170293534 -170.56889171205304 31.93796851707208 54.22083661387867 29.344478463508683 0 0 0 -10.932501513515593 -60.3696947082829 -6.508453379891471 -177.6589122882828 37.304584011629814 170.57435117065853 -31.94544167265881 54.21877474412964 -29.351933875690698 0 0 0 -5.745609457467193e-33 -4.955113141012952 1.3278968962838704e-31 -0.4496475289052711 2.64060387394708 -0.034429869114397965 0 0 0 0.18580482044884314 1.5039361697701663 -8.144985288663422 -26.63821989981234 -39.08253936639632 -51.9480012693248 -32.514474222745285 -0.0016756000875841057 -4.999775234491579 21.520048650654527 -0.19469191541157088 -32.13095037285658 0 0 0 0 0 0 0 0 0 0 0 0 0 0 0 0 0 0 0 0 0 0 0 0 0 0 0 0 0 0 0 0 0 0 0 0 0 0 0 0 0 0 0 0 0 -0.0001970878125531734 1.7146162080382075 -0.1206538936760368 -0.21348515759383346 -0.9082768964330106 -0.3319191879873479 0 0 0 0 0 0 0 0 0 -0.18929387190822325 1.5041781912611158 8.14138268279171 26.635867897016606 -39.07978970590229 51.94431942370612 46.99964425342257 -0.0010191093308155978 4.998585053863945 -21.523460221546998 -0.1943879035400427 32.127383921545544 0 0 0 0 0 0 0 0 0 0 0 0 0 0 0 0 0 0 0 0 0 0 0 0 0 0 0 0 0 0 0 0 0 0 0 0 0 0 0 0 0 0 0 0 0
0.18300031787506407 -7.748201181975664 4.75082286686426 180 0 0 10.929915962032393 -60.36885890786305 6.505848658189155 177.66453754067442 37.30329170293534 -170.56889171205304 31.93797469700498 54.2208424550157 29.344486734343956 0 0 0 -10.932498893456316 -60.36968780075357 -6.508453529710099 -177.6589122882828 37.304584011629814 170.57435117065853 -31.94544167265881 54.21877474412964 -29.351933875690698 0 0 0 -5.745609457467193e-33 -4.955113141012952 1.3278968962838704e-31 -0.4496475289052711 2.64060387394708 -0.034429869114397965 0 0 0 0.18580482044884314 1.5039361697701663 -8.144985288663422 -26.638217927253557 -39.08253936639632 -51.94799607268416 -32.392225830705996 -0.0016746038446290266 -4.999776935541754 21.520050239176584 -0.19469024787529102 -32.130953264894 0 0 0 0 0 0 0 0 0 0 0 0 0 0 0 0 0 0 0 0 0 0 0 0 0 0 0 0 0 0 0 0 0 0 0 0 0 0 0 0 0 0 0 0 0 -0.0001970878125531734 1.7146162080382075 -0.1206538936760368 -0.2662441094921746 -1.0906517746159192 -0.4145487231482226 0 0 0 0 0 0 0 0 0 -0.18929387190822325 1.5041781912611158 8.14138099187102 26.63586790309598 -39.07979410527349 51.94432559971513 46.99964908015457 -0.0010191093308155978 4.998585053863945 -21.523460221546998 -0.1943879035400427 32.127383921545544 0 0 0 0 0 0 0 0 0 0 0 0 0 0 0 0 0 0 0 0 0 0 0 0 0 0 0 0 0 0 0 0 0 0 0 0 0 0 0 0 0 0 0 0 0
0.18300031787506407 -7.748201181975664 4.75082286686426 180 0 0 10.929917271722907 -60.36886581521669 6.5058494408244085 177.66453754067442 37.30329170293534 -170.56889171205304 31.93797469700498 54.2208424550157 29.344486734343956 0 0 0 -10.932501513515593 -60.3696947082829 -6.508453379891471 -177.6589112158233 37.304584011629814 170.57435222952245 -31.94544167265881 54.21877474412964 -29.351933875690698 0 0 0 -5.745609457467193e-33 -4.955113141012952 1.3278968962838704e-31 -0.4496475289052711 2.64060387394708 -0.034429869114397965 0 0 0 0.18580482044884314 1.5039361697701663 -8.144985288663422 -26.63821989981234 -39.08253936639632 -51.9480012693248 -32.26994119527095 -0.0016736077058943641 -4.999779912379541 21.520050239176584 -0.19469024787529102 -32.130953264894 0 0 0 0 0 0 0 0 0 0 0 0 0 0 0 0 0 0 0 0 0 0 0 0 0 0 0 0 0 0 0 0 0 0 0 0 0 0 0 0 0 0 0 0 0 -0.0001970878125531734 1.7146162080382075 -0.1206538936760368 -0.31875835928928326 -1.2731572628919943 -0.49704024918113526 0 0 0 0 0 0 0 0 0 -0.18929387190822325 1.5041781912611158 8.14138268279171 26.63586790309598 -39.07979410527349 51.94432559971513 46.99964908015457 -0.0010191093308155978 4.998585053863945 -21.523460221546998 -0.1943879035400427 32.127383921545544 0 0 0 0 0 0 0 0 0 0 0 0 0 0 0 0 0 0 0 0 0 0 0 0 0 0 0 0 0 0 0 0 0 0 0 0 0 0 0 0 0 0 0 0 0
0.18300031787506407 -7.748201181975664 4.75082286686426 180 0 0 10.9299196220818 -60.36886581521669 6.505847725106175 177.66453754067442 37.30329170293534 -170.56889171205304 31.93797469700498 54.2208424550157 29.344486734343956 0 0 0 -10.932505559614503 -60.3696947082829 -6.508449948385226 -177.6589112158233 37.304584011629814 170.57435222952245 -31.94544167265881 54.21877474412964 -29.351933875690698 0 0 0 -5.745609457467193e-33 -4.955113141012952 1.3278968962838704e-31 -0.4496475289052711 2.64060387394708 -0.034429869114397965 0 0 0 0.18580482044884314 1.5039361697701663 -8.144985288663422 -26.63821989981234 -39.08253936639632 -51.9480012693248 -32.14763966466514 -0.0016726114629392861 -4.999782889217301 21.520050239176584 -0.19469024787529102 -32.130953264894 0 0 0 0 0 0 0 0 0 0 0 0 0 0 0 0 0 0 0 0 0 0 0 0 0 0 0 0 0 0 0 0 0 0 0 0 0 0 0 0 0 0 0 0 0 -0.0001970878125531734 1.7146162080382075 -0.1206538936760368 -0.3710291857744809 -1.4557903281837508 -0.5793929851242223 0 0 0 0 0 0 0 0 0 -0.18929387190822325 1.5041781912611158 8.14138268279171 26.63586790309598 -39.07979410527349 51.94432559971513 46.99965157778245 -0.0010191093308155978 4.998585053863945 -21.523460221546998 -0.1943879035400427 32.127383921545544 0 0 0 0 0 0 0 0 0 0 0 0 0 0 0 0 0 0 0 0 0 0 0 0 0 0 0 0 0 0 0 0 0 0 0 0 0 0 0 0 0 0 0 0 0
